<?xml version="1.0" encoding="utf-8"?>
<!-- Generator: Adobe Illustrator 16.0.0, SVG Export Plug-In . SVG Version: 6.00 Build 0)  -->
<!DOCTYPE svg PUBLIC "-//W3C//DTD SVG 1.1//EN" "http://www.w3.org/Graphics/SVG/1.1/DTD/svg11.dtd">
<svg version="1.1" id="Слой_1" xmlns="http://www.w3.org/2000/svg" xmlns:xlink="http://www.w3.org/1999/xlink" x="0px" y="0px"
	 width="607.753px" height="283.257px" viewBox="0 0 607.753 283.257" enable-background="new 0 0 607.753 283.257"
	 xml:space="preserve">
<g id="svg2" xmlns:dc="http://purl.org/dc/elements/1.1/" xmlns:cc="http://creativecommons.org/ns#" xmlns:rdf="http://www.w3.org/1999/02/22-rdf-syntax-ns#" xmlns:svg="http://www.w3.org/2000/svg">
	<path id="path4138" display="none" fill="#414E5B" d="M304.004,279.425c-4.56-9.7-42.358-81.195-42.947-81.233
		c-0.365-0.022-9.083,8.616-19.372,19.198l-18.708,19.242l-110.466-0.93c-60.756-0.513-110.926-1.216-111.489-1.563
		C0.351,233.726,0,211.908,0,170.603v-62.906l11.376-4.231c6.257-2.327,71.83-26.56,145.717-53.849L291.434,0l38.581,13.282
		c21.221,7.305,44.27,15.242,51.223,17.637s28.682,9.833,48.287,16.528l35.645,12.172v-18.67V22.28h20.225h20.227v25.566v25.566
		l7.836,2.665c4.311,1.465,26.672,9.06,49.688,16.876c23.021,7.817,42.096,14.453,42.391,14.748
		c0.295,0.294-37.424,0.499-83.818,0.455c-46.396-0.044-83.9-0.267-83.344-0.495c0.557-0.229,16.91-3.616,36.344-7.527
		c19.432-3.912,35.48-7.262,35.664-7.446c0.742-0.741-20.248-9.525-113.922-47.68c-53.904-21.956-99.039-39.919-100.3-39.919
		c-1.262,0-11.19,3.233-22.063,7.184c-25.328,9.205-239.535,88.404-262.213,96.95l-5.814,2.191v56.556v56.557h106.424h106.424
		l22.47-22.453c12.359-12.35,22.691-22.232,22.961-21.963s10.126,18.906,21.903,41.414c11.776,22.508,21.767,41.313,22.203,41.786
		c0.434,0.474,9.395-7.831,19.912-18.455l19.125-19.317h130.131h130.133v4.894v4.896l-27.469,0.668
		c-15.107,0.366-72.557,0.668-127.66,0.668H352.431l-23.313,23.297l-23.314,23.299L304.004,279.425L304.004,279.425z
		 M423.708,185.089v-38.428h6.572h6.57v3.539c0,4.19,0.854,4.41,4.021,1.036c3.285-3.495,10.268-5.972,15.041-5.331
		c13.484,1.809,21.291,13.885,20.109,31.108c-1.607,23.448-18.672,33.256-35.885,20.62l-2.275-1.67v13.775v13.773h-7.078h-7.078
		v-38.424H423.708z M455.644,190.001c7.805-3.81,8.613-23.492,1.219-29.715c-5.133-4.318-14.174-2.685-16.777,3.031
		c-1.688,3.706-1.551,18.174,0.205,21.569C443.722,191.528,448.951,193.269,455.644,190.001z M41.129,201.912
		c-6.782-1.918-12.654-6.322-17.093-12.818c-5.277-7.723-7.215-16.104-6.613-28.6c0.437-9.072,0.819-10.603,4.421-17.666
		c6.715-13.171,15.35-17.952,32.257-17.855c7.791,0.044,9.931,0.452,14.868,2.832c7.226,3.483,14.118,11,17.104,18.655
		c1.839,4.713,2.262,7.887,2.318,17.396c0.059,10.019-0.268,12.47-2.36,17.696c-3.09,7.722-12.919,17.959-18.842,19.627
		C60.516,203.054,46.563,203.447,41.129,201.912z M60.454,188.574c8.697-3.633,12.631-11.314,12.609-24.623
		c-0.017-10.438-1.677-15.916-6.188-20.428c-7.208-7.208-18.708-7.75-26.438-1.246c-4.799,4.039-7.209,9.75-7.809,18.51
		c-0.932,13.588,3.495,23.443,12.331,27.457C49.986,190.528,55.496,190.646,60.454,188.574z M319.886,202.378
		c-19.277-4.943-28.974-28.596-21.959-53.563c2.711-9.647,9.192-17.498,17.579-21.289c3.564-1.612,6.693-2.063,14.443-2.08
		c10.521-0.024,14.711,1.098,20.451,5.476c3.137,2.392,10.301,14.362,9.234,15.429c-0.307,0.308-3.406,1.217-6.885,2.021
		l-6.324,1.461l-2.033-2.852c-5.004-7.015-9.266-9.423-16.68-9.423c-3.68,0-11.746,5.278-13.629,8.917
		c-2.574,4.979-3.764,15.402-2.65,23.247c1.729,12.187,4.152,16.092,11.801,19.013c6.785,2.592,12.123,1.458,16.813-3.568
		c2.102-2.252,4.104-5.515,4.449-7.25c0.578-2.89,0.904-3.113,3.828-2.64c6.006,0.976,10.664,3.488,10.664,5.755
		c0,6.114-7.906,15.993-15.412,19.258C337.826,202.791,325.669,203.863,319.886,202.378z M503.904,202.184
		c-5.314-1.269-14.068-8.931-16.619-14.546c-2.84-6.25-2.59-19.719,0.488-26.313c8.469-18.15,34.305-20.993,46.324-5.098
		c4.732,6.258,6.301,11.924,5.686,20.539c-0.725,10.111-5.514,18.396-13.26,22.936C521.523,202.632,510.74,203.816,503.904,202.184
		L503.904,202.184z M517.324,190.251c9.736-4.424,11.391-21.894,2.787-29.447c-8.828-7.75-20.561-0.088-20.561,13.428
		c0,6.807,2.08,12.072,5.793,14.674C510.625,192.603,511.843,192.74,517.324,190.251z M101.124,163.822V125.11l21.804,0.604
		c19.315,0.535,22.304,0.845,26.18,2.721c11.188,5.417,13.647,19.764,5.024,29.309l-3.513,3.887l3.601,2.228
		c5.766,3.563,8.589,8.576,8.589,15.248c0,7.295-1.513,11.722-5.445,15.931c-5.926,6.344-6.907,6.555-32.729,7.049l-23.511,0.451
		V163.822L101.124,163.822z M145.311,185.662c2.154-2.504,2.471-3.678,2.035-7.543c-0.855-7.586-3.668-8.732-23.216-9.463
		l-7.837-0.291v10.486v10.486l13.234-0.355C142.727,188.628,142.767,188.621,145.311,185.662L145.311,185.662z M140.804,154.587
		c0.967-0.498,2.482-2.305,3.366-4.016c1.329-2.57,1.394-3.621,0.376-6.076c-2.14-5.167-4.295-5.924-16.851-5.924h-11.404v9.156
		v9.153l11.376-0.692C133.926,155.808,139.836,155.087,140.804,154.587z M175.955,163.853v-38.427h7.584h7.584v16.18
		c0,14.009,0.212,16.179,1.583,16.179c3.705,0,5.961-2.757,11.035-13.488c7.293-15.423,11.405-18.871,22.515-18.871h4.305v5.562
		v5.562h-3.483c-4.983,0-8.201,3.311-11.757,12.1c-1.68,4.15-4.186,9.032-5.568,10.846l-2.514,3.295l3.953,3.571
		c4.243,3.832,18.358,29.813,18.358,33.787c0,1.985-0.541,2.132-7.869,2.132h-7.869l-5.457-11.729
		c-3.001-6.448-6.77-13.709-8.375-16.131c-3.152-4.76-6.53-6.608-7.958-4.356c-0.478,0.756-0.876,8.313-0.885,16.795l-0.016,15.421
		h-7.584h-7.584v-38.428H175.955z M384.269,180.539v-21.742h-6.996c-9.857,0-10.193-0.221-10.193-6.682v-5.453h24.27h24.271v5.521
		v5.521l-8.344,0.293l-8.344,0.293l-0.271,21.994l-0.271,21.995h-7.059h-7.063V180.539L384.269,180.539z M551.361,174.724
		l0.268-27.557l6.826-0.299l6.826-0.3v16.867c0,19.748-1.301,19.938,12.566-1.858c8.305-13.058,9.041-13.906,12.043-13.916
		c1.76-0.006,4.906-0.293,6.992-0.639l3.791-0.627v27.941v27.94h-6.549h-6.549l-0.277-17.444l-0.275-17.442l-11.008,17.442
		l-11.008,17.444h-6.957h-6.959L551.361,174.724L551.361,174.724z M572.328,138.577c-1.408-0.398-3.607-1.358-4.887-2.134
		c-2.449-1.484-6.205-7.823-6.205-10.472c0-2.075,4.57-2.052,6.281,0.032c4.105,5.006,4.93,5.489,9.342,5.489
		c3.965,0,4.824-0.426,7.238-3.591c2.094-2.746,3.355-3.52,5.359-3.287c2.113,0.245,2.566,0.783,2.348,2.764
		c-0.35,3.146-4.836,9.056-7.662,10.095C580.46,138.828,575.015,139.336,572.328,138.577L572.328,138.577z"/>
</g>
<g id="Слой_2">
	<polygon fill="#368F3A" points="64.758,197.193 23.741,197.193 154.227,7.502 175.196,37.419 	"/>
	<path fill="none" d="M168.236,130.919"/>
	<path fill="none" d="M163.456,126.138"/>
	<path fill="none" d="M173.921,122.573"/>
	<path fill="none" d="M169.191,117.842"/>
	<polygon fill="#368F3A" points="176.931,176.339 197.686,145.599 174.354,111.067 153.329,141.49 	"/>
	<line fill="none" x1="185.265" y1="152.621" x2="190.078" y2="157.434"/>
	<polygon fill="#368F3A" points="190.84,197.193 232.329,197.193 218.644,176.939 204.703,197.193 	"/>
	<polygon fill="#182736" points="114.333,197.193 73.397,197.193 178.692,43.221 199.718,73.645 	"/>
	<polygon fill="#182736" points="243.159,197.193 284.095,197.192 178.8,43.221 157.774,73.645 	"/>
	<polygon fill="#182736" points="204.051,197.193 163.236,197.192 218.888,114.766 243.375,140.2 	"/>
	<rect x="22.173" y="201.003" fill="#368F3A" width="261.921" height="6.002"/>
	<g>
		<path fill="#368F3A" d="M44.487,251.156H26.801l-3.267,13.064h-5.258l14.658-55.768h5.418L53.01,264.22h-5.258L44.487,251.156z
			 M43.372,246.694l-5.735-23.104c-0.877-3.426-1.674-7.408-1.912-8.762h-0.159c-0.239,1.354-1.036,5.336-1.912,8.762l-5.736,23.104
			H43.372z"/>
		<path fill="#368F3A" d="M86.471,208.455v55.767h-4.939v-51.146h-14.34c-0.717,17.605-1.434,33.539-2.39,40.391
			c-0.877,7.09-4.382,11.472-10.676,11.472v-4.7c3.665,0,5.418-3.105,5.896-7.488c0.717-5.976,1.673-21.668,2.47-44.295H86.471
			L86.471,208.455z"/>
		<path fill="#368F3A" d="M98.74,208.455h4.939v35.291c0,2.789-0.079,7.889-0.239,10.676l0.239,0.08
			c0.717-1.912,2.39-5.896,3.903-9.082l16.252-36.965h5.577v55.767h-4.939v-36.728l0.08-9.32l-0.16-0.08
			c-0.478,1.275-2.15,5.259-2.947,7.171l-17.287,38.957H98.74V208.455z"/>
		<path fill="#182736" d="M140.167,248.447v-24.219c0-10.755,6.135-16.73,14.897-16.73c9.082,0,14.898,5.736,15.456,16.094h-4.78
			c-0.558-7.887-4.382-11.631-10.676-11.631c-5.975,0-10.117,3.982-10.117,12.269v24.22c0,8.284,4.302,12.268,10.437,12.268
			c6.373,0,10.038-3.903,10.834-11.631h4.78c-0.797,10.197-6.453,16.092-15.614,16.092
			C146.46,265.175,140.167,259.203,140.167,248.447z"/>
		<path fill="#182736" d="M199.281,251.156h-17.686l-3.267,13.064h-5.258l14.658-55.768h5.418l14.658,55.768h-5.258L199.281,251.156
			z M198.166,246.694l-5.735-23.104c-0.877-3.426-1.674-7.408-1.912-8.762h-0.159c-0.239,1.354-1.036,5.336-1.912,8.762
			l-5.736,23.104H198.166z"/>
		<path fill="#182736" d="M244.134,225.583c0,11.472-5.657,17.525-15.934,17.525h-8.444v21.111h-4.939v-55.768h13.384
			C238.477,208.455,244.134,214.667,244.134,225.583z M239.195,225.583c0-8.287-3.506-12.43-10.994-12.43h-8.444v25.256h8.444
			C235.689,238.41,239.195,234.425,239.195,225.583z"/>
		<path fill="#182736" d="M282.375,259.599v13.781h-4.78v-9.16h-28.839v9.16h-4.78v-13.781h3.027
			c3.187-3.105,5.736-10.756,6.055-20.713l0.956-30.434h23.581v51.146H282.375z M272.656,213.076h-13.941l-0.956,27.086
			c-0.318,9.002-2.071,15.375-4.62,19.438h19.518L272.656,213.076L272.656,213.076z"/>
	</g>
</g>
<g id="Слой_3">
</g>
</svg>
